<svg width="141" height="31" viewBox="0 0 141 31" fill="none" xmlns="http://www.w3.org/2000/svg">
<path d="M31.5248 0.0150146C30.7129 0.0150146 30.0486 0.691214 30.0486 1.51768C30.0486 2.34415 30.7129 3.02035 31.5248 3.02035C32.3367 3.02035 33.001 2.34415 33.001 1.51768C33.001 0.691214 32.3367 0.0150146 31.5248 0.0150146ZM31.5248 2.79495C30.831 2.79495 30.2701 2.22393 30.2701 1.51768C30.2701 0.811428 30.831 0.240415 31.5248 0.240415C32.2186 0.240415 32.7796 0.811428 32.7796 1.51768C32.7796 2.22393 32.2186 2.79495 31.5248 2.79495Z" fill="white"/>
<path d="M32.012 1.88581C31.9529 1.79565 31.8939 1.72051 31.8348 1.66041C31.8053 1.63035 31.761 1.60781 31.702 1.57776C31.857 1.55522 31.975 1.50263 32.0489 1.41998C32.1227 1.33733 32.1596 1.23966 32.1596 1.11945C32.1596 1.02929 32.1374 0.946639 32.0931 0.863993C32.0489 0.788859 31.9898 0.736266 31.9086 0.706213C31.8348 0.676159 31.7241 0.661133 31.5765 0.661133H30.8531V2.32909H31.0672V1.58527H31.3181C31.3772 1.58527 31.4141 1.58527 31.4362 1.59279C31.4731 1.6003 31.5027 1.61533 31.5322 1.63787C31.5617 1.66041 31.5986 1.69797 31.6429 1.75057C31.6872 1.80316 31.7389 1.87829 31.7979 1.98348L32.012 2.32909H32.285L32.012 1.88581ZM31.5322 1.41247H31.0672V0.856479H31.5839C31.7093 0.856479 31.7979 0.879019 31.8496 0.931613C31.9086 0.984206 31.9308 1.04431 31.9308 1.12696C31.9308 1.17955 31.916 1.23215 31.8865 1.27723C31.857 1.32231 31.8127 1.35987 31.761 1.3749C31.7093 1.39744 31.6355 1.41247 31.5322 1.41247Z" fill="white"/>
<path d="M139.477 3C138.665 3 138.001 3.6762 138.001 4.50267C138.001 5.32913 138.665 6.00533 139.477 6.00533C140.289 6.00533 140.953 5.32913 140.953 4.50267C140.953 3.6762 140.289 3 139.477 3ZM139.477 5.77993C138.783 5.77993 138.222 5.20892 138.222 4.50267C138.222 3.79641 138.783 3.2254 139.477 3.2254C140.171 3.2254 140.732 3.79641 140.732 4.50267C140.732 5.20892 140.171 5.77993 139.477 5.77993Z" fill="white"/>
<path d="M139.964 4.87067C139.905 4.78051 139.846 4.70538 139.787 4.64527C139.758 4.61522 139.713 4.59268 139.654 4.56262C139.809 4.54008 139.927 4.48749 140.001 4.40484C140.075 4.3222 140.112 4.22452 140.112 4.10431C140.112 4.01415 140.09 3.9315 140.045 3.84886C140.001 3.77372 139.942 3.72113 139.861 3.69108C139.787 3.66102 139.676 3.646 139.529 3.646H138.805V5.31396H139.02V4.57014H139.27C139.33 4.57014 139.366 4.57014 139.389 4.57765C139.425 4.58516 139.455 4.60019 139.485 4.62273C139.514 4.64527 139.551 4.68284 139.595 4.73543C139.64 4.78802 139.691 4.86316 139.75 4.96834L139.964 5.31396H140.237L139.964 4.87067ZM139.485 4.39733H139.02V3.84134H139.536C139.662 3.84134 139.75 3.86388 139.802 3.91648C139.861 3.96907 139.883 4.02918 139.883 4.11182C139.883 4.16442 139.868 4.21701 139.839 4.26209C139.809 4.30717 139.765 4.34474 139.713 4.35976C139.662 4.3823 139.588 4.39733 139.485 4.39733Z" fill="white"/>
<path d="M32.9933 9.74479C31.9747 0.698739 20.6672 0.803926 15.4784 3.11803L15.4711 0L12.3489 0.939166L11.3008 5.31192C5.19684 8.76806 0.325451 15.0116 0.000690907 21.1951C-0.0731181 27.9721 5.77994 31.0902 11.2418 30.9925C15.0503 30.9474 19.036 29.4973 23.1767 26.9503C23.7893 28.5206 24.5569 29.7152 25.3984 30.722C26.3136 28.6333 27.0222 25.9886 27.5388 22.833C31.1407 18.4152 33.1114 14.0274 32.9933 9.74479ZM13.0427 8.60276V13.0732H11.9061L13.0427 8.60276ZM10.6882 8.06932L9.53681 13.0882L6.13422 13.0732C7.29302 10.992 8.82087 9.33156 10.6882 8.06932ZM8.06801 20.564C7.86135 22.1192 7.69159 22.9532 7.25612 22.8931C6.75421 22.7128 6.51803 21.4205 6.37041 20.564H8.06801ZM3.83138 18.1747C4.70971 22.6301 5.66184 26.3868 7.9573 26.6197C8.96848 26.5446 9.8911 25.0194 10.5923 20.5565H13.028V22.7729H15.4194V20.5715H17.3827V22.7579H19.8922V20.5715H21.7817L22.5051 24.9893C13.9432 30.3539 0.605925 28.9038 3.83138 18.1747ZM25.1105 25.087C24.4315 24.6062 24.2174 22.6903 24.1805 20.564L25.8412 20.5715C25.8117 22.9457 25.6198 24.6738 25.1105 25.087ZM28.1883 16.5368V13.1108H23.996V11.0746H21.767V13.0281H19.8479V11.0746H17.4122V13.0507H15.508V5.23679C25.4574 1.77315 32.0633 7.39312 28.1883 16.5368Z" fill="white"/>
<path d="M51.3662 23H48.2217L46.9717 19.748H41.249L40.0674 23H37.001L42.5771 8.68359H45.6338L51.3662 23ZM46.0439 17.3359L44.0713 12.0234L42.1377 17.3359H46.0439Z" fill="white"/>
<path d="M52.9385 23V8.68359H55.751L61.6104 18.2441V8.68359H64.2959V23H61.3955L55.624 13.6641V23H52.9385Z" fill="white"/>
<path d="M70.585 23V11.1055H66.3369V8.68359H77.7139V11.1055H73.4756V23H70.585Z" fill="white"/>
<path d="M78.6318 15.9297C78.6318 14.4714 78.8499 13.2474 79.2861 12.2578C79.6117 11.5286 80.0544 10.8743 80.6143 10.2949C81.1807 9.71549 81.7992 9.28581 82.4697 9.00586C83.3617 8.62826 84.3903 8.43945 85.5557 8.43945C87.665 8.43945 89.3512 9.09375 90.6143 10.4023C91.8838 11.7109 92.5186 13.5306 92.5186 15.8613C92.5186 18.1725 91.8903 19.9824 90.6338 21.291C89.3773 22.5931 87.6976 23.2441 85.5947 23.2441C83.4658 23.2441 81.7731 22.5964 80.5166 21.3008C79.2601 19.9987 78.6318 18.2083 78.6318 15.9297ZM81.6104 15.832C81.6104 17.4531 81.9847 18.6836 82.7334 19.5234C83.4821 20.3568 84.4326 20.7734 85.585 20.7734C86.7373 20.7734 87.6813 20.36 88.417 19.5332C89.1592 18.6999 89.5303 17.4531 89.5303 15.793C89.5303 14.1523 89.1689 12.9284 88.4463 12.1211C87.7301 11.3138 86.7764 10.9102 85.585 10.9102C84.3936 10.9102 83.4333 11.3203 82.7041 12.1406C81.9749 12.9544 81.6104 14.1849 81.6104 15.832Z" fill="white"/>
<path d="M94.8135 23V8.68359H97.626L103.485 18.2441V8.68359H106.171V23H103.271L97.499 13.6641V23H94.8135Z" fill="white"/>
<path d="M108.651 15.9297C108.651 14.4714 108.869 13.2474 109.306 12.2578C109.631 11.5286 110.074 10.8743 110.634 10.2949C111.2 9.71549 111.819 9.28581 112.489 9.00586C113.381 8.62826 114.41 8.43945 115.575 8.43945C117.685 8.43945 119.371 9.09375 120.634 10.4023C121.903 11.7109 122.538 13.5306 122.538 15.8613C122.538 18.1725 121.91 19.9824 120.653 21.291C119.397 22.5931 117.717 23.2441 115.614 23.2441C113.485 23.2441 111.793 22.5964 110.536 21.3008C109.28 19.9987 108.651 18.2083 108.651 15.9297ZM111.63 15.832C111.63 17.4531 112.004 18.6836 112.753 19.5234C113.502 20.3568 114.452 20.7734 115.604 20.7734C116.757 20.7734 117.701 20.36 118.437 19.5332C119.179 18.6999 119.55 17.4531 119.55 15.793C119.55 14.1523 119.188 12.9284 118.466 12.1211C117.75 11.3138 116.796 10.9102 115.604 10.9102C114.413 10.9102 113.453 11.3203 112.724 12.1406C111.994 12.9544 111.63 14.1849 111.63 15.832Z" fill="white"/>
<path d="M128.456 23L123.339 8.68359H126.474L130.097 19.2793L133.603 8.68359H136.669L131.542 23H128.456Z" fill="white"/>
</svg>
